Coordinates
version=1
nRows=9
nColumns=63
inDegrees=yes

Units are S.I. units (second, meters, Newtons, ...)
If the header above contains a line with 'inDegrees', this indicates whether rotational values are in degrees (yes) or radians (no).

endheader
time	pelvis_tilt	pelvis_list	pelvis_rotation	pelvis_tx	pelvis_ty	pelvis_tz	hip_flexion_r	hip_adduction_r	hip_rotation_r	knee_angle_r	knee_angle_r_beta	ankle_angle_r	subtalar_angle_r	mtp_angle_r	hip_flexion_l	hip_adduction_l	hip_rotation_l	knee_angle_l	knee_angle_l_beta	ankle_angle_l	subtalar_angle_l	mtp_angle_l	L5_S1_Flex_Ext	L5_S1_Lat_Bending	L5_S1_axial_rotation	L4_L5_Flex_Ext	L4_L5_Lat_Bending	L4_L5_axial_rotation	L3_L4_Flex_Ext	L3_L4_Lat_Bending	L3_L4_axial_rotation	L2_L3_Flex_Ext	L2_L3_Lat_Bending	L2_L3_axial_rotation	L1_L2_Flex_Ext	L1_L2_Lat_Bending	L1_L2_axial_rotation	L1_T12_Flex_Ext	L1_T12_Lat_Bending	L1_T12_axial_rotation	Abs_r3	Abs_r2	Abs_r1	Abs_t1	Abs_t2	neck_flexion	neck_bending	neck_rotation	arm_flex_r	arm_add_r	arm_rot_r	elbow_flex_r	pro_sup_r	wrist_flex_r	wrist_dev_r	arm_flex_l	arm_add_l	arm_rot_l	elbow_flex_l	pro_sup_l	wrist_flex_l	wrist_dev_l
      1.22033898	     -5.51929061	     -8.78077679	     74.62052604	      0.29796940	      0.57369878	      0.65254292	      8.62730696	     -0.35288104	     -9.30183030	      5.19046712	      0.09059074	     23.58895678	     13.23047296	      0.00000000	     10.02708700	      0.38782024	     -4.84649643	      7.18014806	      0.12531722	     21.00136753	      5.59532181	      0.00000000	     -0.02246889	     -0.43075549	      0.34083662	     -0.04172698	     -0.57290480	      0.36213891	     -0.03691415	     -1.04733890	      0.36213891	     -0.02567970	     -1.04733890	      0.29823204	     -0.02086462	     -0.87839659	      0.27692976	     -0.01283873	     -0.66724025	      0.25562747	     -0.16049306	     -4.87279224	      1.89563104	      0.00000000	      0.00000000	      7.07008015	     -3.12827935	      9.57317337	      8.91168227	     -7.75227715	     57.32745455	     45.97441871	     33.68367645	     -2.36094981	     11.65442901	     12.38822398	    -12.53600006	     64.66843845	     54.12884159	     51.20726332	     -9.31414171	      9.55990884
      1.23728814	     -5.50419102	     -8.89380412	     74.70751690	      0.29819552	      0.57366905	      0.65200582	      8.75613936	     -0.32524551	     -9.29955439	      5.34596125	      0.09330463	     23.54451693	     13.05579496	      0.00000000	     10.14786936	      0.33010744	     -5.04656830	      7.34892184	      0.12826288	     20.75497890	      5.48647815	      0.00000000	     -0.01766389	     -0.43580044	      0.29574129	     -0.03280361	     -0.57961459	      0.31422512	     -0.02902001	     -1.05960519	      0.31422512	     -0.02018806	     -1.05960519	      0.25877363	     -0.01640269	     -0.88868426	      0.24028980	     -0.01009315	     -0.67505488	      0.22180597	     -0.12617141	     -4.92986174	      1.64482432	      0.00000000	      0.00000000	      6.92566952	     -3.06439720	      9.57523469	      8.89939865	     -7.70567418	     57.42129135	     46.07090406	     33.92117419	     -2.41647527	     11.67231366	     12.33836636	    -12.66286449	     64.82213604	     54.19861826	     51.23015859	     -9.16990067	      9.68261412
      1.25423729	     -5.44558140	     -8.97617312	     75.30416225	      0.29806550	      0.57369390	      0.65147120	      8.80538789	     -0.34112451	    -10.36023318	      5.50624290	      0.09610207	     23.63678064	     13.65153858	      0.00000000	     10.34047541	      0.21766318	     -5.81070899	      7.67741492	      0.13399617	     20.74295134	      6.92454947	      0.00000000	     -0.01924846	     -0.43923895	      0.11713787	     -0.03574632	     -0.58418781	      0.12445899	     -0.03162330	     -1.06796559	      0.12445899	     -0.02199907	     -1.06796559	      0.10249564	     -0.01787412	     -0.89569607	      0.09517452	     -0.01099857	     -0.68038114	      0.08785340	     -0.13748983	     -4.96875887	      0.65148571	      0.00000000	      0.00000000	      6.68272727	     -2.47318518	     10.59168325	      8.86759536	     -7.42664398	     56.90526485	     46.01482733	     36.72318040	     -2.32863060	     12.52307647	     11.77322365	    -12.72977143	     63.00082811	     54.31889644	     55.10466056	     -7.23936976	     12.68331013
      1.27118644	     -5.45473384	     -9.10620460	     75.41798300	      0.29827458	      0.57352283	      0.65096765	      8.94070203	     -0.31981374	    -10.29153296	      5.55830680	      0.09701075	     23.70764658	     13.46963594	      0.00000000	     10.49629482	      0.18233893	     -5.91548575	      7.85444243	      0.13708588	     20.58396632	      6.84558256	      0.00000000	     -0.00362633	     -0.44882129	      0.07897026	     -0.00673446	     -0.59693232	      0.08390590	     -0.00595770	     -1.09126409	      0.08390590	     -0.00414453	     -1.09126409	      0.06909898	     -0.00336741	     -0.91523638	      0.06416334	     -0.00207209	     -0.69522418	      0.05922770	     -0.02590251	     -5.07715621	      0.43920890	      0.00000000	      0.00000000	      6.62526688	     -2.37608200	     10.49451989	      8.80926103	     -7.42799483	     56.96614740	     46.18083767	     36.92039016	     -2.34873868	     12.46432994	     11.70371099	    -12.78224196	     63.33874170	     54.19409169	     55.05854219	     -7.09944067	     12.85103449
      1.28813559	     -5.28657251	     -9.15845522	     76.10728329	      0.29806091	      0.57365856	      0.65063332	      8.93425050	     -0.24896369	    -11.79415374	      5.62775919	      0.09822293	     23.89139630	     14.61869822	      0.00000000	     10.69051850	     -0.05866326	     -6.96618053	      8.24712566	      0.14393950	     20.77818639	      8.89176780	      0.00000000	     -0.01378200	     -0.44944185	     -0.01312939	     -0.02559455	     -0.59775767	     -0.01394998	     -0.02264245	     -1.09277292	     -0.01394998	     -0.01575145	     -1.09277292	     -0.01148822	     -0.01279796	     -0.91650183	     -0.01066763	     -0.00787503	     -0.69618543	     -0.00984704	     -0.09844344	     -5.08417614	     -0.07302174	      0.00000000	      0.00000000	      6.16757909	     -1.77034078	     10.46774794	      8.83226020	     -7.42010655	     56.92890104	     46.28000232	     37.74149523	     -2.41500351	     12.93893496	     11.59884759	    -12.45495251	     61.78309893	     53.70045851	     60.86946875	     -3.29463500	     16.99674226
      1.30508475	     -5.18063739	     -9.24117564	     76.41272357	      0.29818580	      0.57370328	      0.65028334	      8.98428647	     -0.14594584	    -12.27580128	      5.60387381	      0.09780605	     24.01357273	     14.95926633	      0.00000000	     10.82092162	     -0.21532635	     -7.27809492	      8.42991910	      0.14712984	     20.82529924	      9.56152271	      0.00000000	     -0.01534477	     -0.45327078	     -0.05894438	     -0.02849678	     -0.60285014	     -0.06262841	     -0.02520993	     -1.10208258	     -0.06262841	     -0.01753754	     -1.10208258	     -0.05157634	     -0.01424915	     -0.92430978	     -0.04789231	     -0.00876800	     -0.70211644	     -0.04420829	     -0.10960617	     -5.12748975	     -0.32783098	      0.00000000	      0.00000000	      5.96764376	     -1.66006214	      9.86350936	      9.09167042	     -7.47625946	     57.87810949	     46.30166392	     36.85933084	     -2.66210817	     13.03254355	     11.42656114	    -12.25138650	     61.08232154	     53.44717859	     62.29646332	     -2.23147805	     19.10267999
      1.32203390	     -5.17127373	     -9.44474177	     76.51312914	      0.29863149	      0.57346258	      0.64990599	      9.12784170	     -0.02254432	    -11.90769165	      5.39569321	      0.09417261	     23.95669250	     14.42222946	      0.00000000	     11.00338650	     -0.27883544	     -7.05004233	      8.42801669	      0.14709664	     20.81302771	      9.38156105	      0.00000000	     -0.00155468	     -0.45722632	     -0.05329455	     -0.00288719	     -0.60811100	     -0.05662546	     -0.00255418	     -1.11170007	     -0.05662546	     -0.00177684	     -1.11170007	     -0.04663273	     -0.00144367	     -0.93237591	     -0.04330182	     -0.00088834	     -0.70824357	     -0.03997091	     -0.01110492	     -5.17223555	     -0.29640829	      0.00000000	      0.00000000	      6.20267568	     -1.63703219	      9.66648054	      9.03555205	     -7.51243594	     58.14883725	     46.39439131	     36.98236895	     -2.67616353	     13.07913857	     11.37021971	    -12.28699289	     61.26029300	     53.38497089	     62.05938023	     -2.24915881	     19.16424477
      1.33898305	     -4.87254423	     -9.43112037	     76.85230068	      0.29832547	      0.57373440	      0.64944617	      9.01726452	      0.21473372	    -12.62480730	      5.34952622	      0.09336685	     24.05981960	     15.07811425	      0.00000000	     10.95508250	     -0.54314250	     -6.95961946	      8.49014972	      0.14818107	     20.91199067	      9.75952294	      0.00000000	     -0.02617310	     -0.43910412	     -0.10008832	     -0.04860606	     -0.58400848	     -0.10634384	     -0.04299978	     -1.06763777	     -0.10634384	     -0.02991323	     -1.06763777	     -0.08757728	     -0.02430434	     -0.89542113	     -0.08132176	     -0.01495531	     -0.68017229	     -0.07506624	     -0.18695180	     -4.96723366	     -0.55666123	      0.00000000	      0.00000000	      5.93530728	     -2.07462025	      7.98431646	      9.69451830	     -7.77653173	     59.97852640	     46.34217033	     36.65404212	     -2.73839442	     13.43865600	     11.05594425	    -11.94387512	     60.12407013	     53.31699600	     61.36588836	     -2.34016415	     21.59986677
      1.35593220	     -4.69892653	     -9.51038751	     77.01589538	      0.29845860	      0.57385482	      0.64882039	      8.92430591	      0.43125700	    -12.60516828	      5.06760891	      0.08844646	     23.97346141	     15.02587632	      0.00000000	     10.96366214	     -0.68869813	     -6.37754670	      8.45842806	      0.14762742	     20.82914321	      9.19613320	      0.00000000	     -0.03166215	     -0.42247485	     -0.09791064	     -0.05879978	     -0.56189156	     -0.10403005	     -0.05201774	     -1.02720536	     -0.10403005	     -0.03618667	     -1.02720536	     -0.08567181	     -0.02940147	     -0.86151072	     -0.07955239	     -0.01809175	     -0.65441355	     -0.07343298	     -0.22615956	     -4.77912004	     -0.54454960	      0.00000000	      0.00000000	      5.69876138	     -2.26675465	      7.40297488	      9.90562980	     -7.96018466	     60.81928255	     46.37353937	     37.12748181	     -2.82720393	     13.32988253	     10.95800620	    -11.85225387	     60.15415473	     53.22457750	     59.99587381	     -2.80430171	     21.24630674
